<svg width="24" height="25" viewBox="0 0 24 25" fill="none" xmlns="http://www.w3.org/2000/svg">
<path d="M23 16.8507L23.9248 17.2311C24.0835 16.8454 23.9861 16.4018 23.6805 16.118C23.3749 15.8342 22.9253 15.7698 22.5524 15.9565L23 16.8507ZM10.0156 0.999999L10.8226 1.59058C11.0681 1.255 11.0804 0.802474 10.8534 0.454073C10.6264 0.105672 10.2075 -0.0658803 9.80129 0.0232296L10.0156 0.999999ZM18.395 16.9366C13.1984 16.9366 8.95781 12.6496 8.95781 7.32664L6.95781 7.32664C6.95781 13.7231 12.063 18.9366 18.395 18.9366L18.395 16.9366ZM22.5524 15.9565C21.2988 16.584 19.8886 16.9366 18.395 16.9366L18.395 18.9366C20.2072 18.9366 21.9233 18.508 23.4476 17.7449L22.5524 15.9565ZM22.0752 16.4703C20.4946 20.3132 16.769 22.9976 12.4405 22.9976L12.4405 24.9976C17.6227 24.9976 22.0526 21.7832 23.9248 17.2311L22.0752 16.4703ZM12.4405 22.9976C6.68982 22.9976 2.0001 18.2541 2.0001 12.3679L0.000104407 12.3679C0.000104103 19.3276 5.55444 24.9976 12.4405 24.9976L12.4405 22.9976ZM2.0001 12.3679C2.0001 7.25952 5.53604 3.00654 10.2299 1.97677L9.80129 0.0232296C4.18788 1.25474 0.000104672 6.32212 0.000104407 12.3679L2.0001 12.3679ZM8.95781 7.32664C8.95781 5.17394 9.65172 3.19045 10.8226 1.59058L9.2086 0.409423C7.7939 2.3425 6.95781 4.73755 6.95781 7.32664L8.95781 7.32664Z" fill="#FAFAFC"/>
</svg>
