<svg width="100" height="100" viewBox="0 0 100 100" fill="none" xmlns="http://www.w3.org/2000/svg">
<path d="M50 75C56.6304 75 62.9893 72.3661 67.6777 67.6777C72.3661 62.9893 75 56.6304 75 50C75 43.3696 72.3661 37.0107 67.6777 32.3223C62.9893 27.6339 56.6304 25 50 25C43.3696 25 37.0107 27.6339 32.3223 32.3223C27.6339 37.0107 25 43.3696 25 50C25 56.6304 27.6339 62.9893 32.3223 67.6777C37.0107 72.3661 43.3696 75 50 75ZM50 0C50.8288 0 51.6237 0.32924 52.2097 0.915291C52.7958 1.50134 53.125 2.2962 53.125 3.125V15.625C53.125 16.4538 52.7958 17.2487 52.2097 17.8347C51.6237 18.4208 50.8288 18.75 50 18.75C49.1712 18.75 48.3763 18.4208 47.7903 17.8347C47.2042 17.2487 46.875 16.4538 46.875 15.625V3.125C46.875 2.2962 47.2042 1.50134 47.7903 0.915291C48.3763 0.32924 49.1712 0 50 0V0ZM50 81.25C50.8288 81.25 51.6237 81.5792 52.2097 82.1653C52.7958 82.7513 53.125 83.5462 53.125 84.375V96.875C53.125 97.7038 52.7958 98.4987 52.2097 99.0847C51.6237 99.6708 50.8288 100 50 100C49.1712 100 48.3763 99.6708 47.7903 99.0847C47.2042 98.4987 46.875 97.7038 46.875 96.875V84.375C46.875 83.5462 47.2042 82.7513 47.7903 82.1653C48.3763 81.5792 49.1712 81.25 50 81.25ZM100 50C100 50.8288 99.6708 51.6237 99.0847 52.2097C98.4987 52.7958 97.7038 53.125 96.875 53.125H84.375C83.5462 53.125 82.7513 52.7958 82.1653 52.2097C81.5792 51.6237 81.25 50.8288 81.25 50C81.25 49.1712 81.5792 48.3763 82.1653 47.7903C82.7513 47.2042 83.5462 46.875 84.375 46.875H96.875C97.7038 46.875 98.4987 47.2042 99.0847 47.7903C99.6708 48.3763 100 49.1712 100 50ZM18.75 50C18.75 50.8288 18.4208 51.6237 17.8347 52.2097C17.2487 52.7958 16.4538 53.125 15.625 53.125H3.125C2.2962 53.125 1.50134 52.7958 0.915291 52.2097C0.32924 51.6237 0 50.8288 0 50C0 49.1712 0.32924 48.3763 0.915291 47.7903C1.50134 47.2042 2.2962 46.875 3.125 46.875H15.625C16.4538 46.875 17.2487 47.2042 17.8347 47.7903C18.4208 48.3763 18.75 49.1712 18.75 50ZM85.3562 14.6437C85.9421 15.2298 86.2712 16.0245 86.2712 16.8531C86.2712 17.6818 85.9421 18.4765 85.3562 19.0625L76.5188 27.9062C76.2282 28.1964 75.8833 28.4265 75.5039 28.5833C75.1244 28.7402 74.7178 28.8208 74.3072 28.8205C73.4779 28.8199 72.6828 28.4899 72.0969 27.9031C71.8067 27.6126 71.5767 27.2677 71.4198 26.8883C71.2629 26.5088 71.1824 26.1021 71.1826 25.6915C71.1832 24.8623 71.5132 24.0672 72.1 23.4813L80.9375 14.6437C81.5235 14.0579 82.3182 13.7288 83.1469 13.7288C83.9755 13.7288 84.7702 14.0579 85.3562 14.6437ZM27.9 72.1C28.4858 72.686 28.815 73.4807 28.815 74.3094C28.815 75.138 28.4858 75.9327 27.9 76.5188L19.0625 85.3562C18.4731 85.9255 17.6837 86.2405 16.8644 86.2334C16.045 86.2262 15.2612 85.8976 14.6818 85.3182C14.1024 84.7388 13.7738 83.955 13.7666 83.1356C13.7595 82.3163 14.0745 81.5269 14.6437 80.9375L23.4813 72.1C24.0673 71.5142 24.862 71.185 25.6906 71.185C26.5193 71.185 27.314 71.5142 27.9 72.1ZM85.3562 85.3562C84.7702 85.9421 83.9755 86.2712 83.1469 86.2712C82.3182 86.2712 81.5235 85.9421 80.9375 85.3562L72.1 76.5188C71.5308 75.9294 71.2158 75.14 71.2229 74.3206C71.23 73.5013 71.5587 72.7175 72.1381 72.1381C72.7175 71.5587 73.5013 71.23 74.3206 71.2229C75.14 71.2158 75.9294 71.5308 76.5188 72.1L85.3562 80.9375C85.9421 81.5235 86.2712 82.3182 86.2712 83.1469C86.2712 83.9755 85.9421 84.7702 85.3562 85.3562ZM27.9 27.9062C27.314 28.4921 26.5193 28.8212 25.6906 28.8212C24.862 28.8212 24.0673 28.4921 23.4813 27.9062L14.6437 19.0625C14.3453 18.7742 14.1072 18.4294 13.9434 18.0481C13.7797 17.6669 13.6934 17.2568 13.6898 16.8419C13.6862 16.4269 13.7653 16.0154 13.9224 15.6314C14.0796 15.2473 14.3116 14.8984 14.605 14.605C14.8984 14.3116 15.2473 14.0796 15.6314 13.9224C16.0154 13.7653 16.4269 13.6862 16.8419 13.6898C17.2568 13.6934 17.6669 13.7797 18.0481 13.9434C18.4294 14.1072 18.7742 14.3453 19.0625 14.6437L27.9 23.4813C28.191 23.7715 28.4219 24.1164 28.5795 24.496C28.737 24.8757 28.8181 25.2827 28.8181 25.6938C28.8181 26.1048 28.737 26.5118 28.5795 26.8915C28.4219 27.2711 28.191 27.616 27.9 27.9062Z" fill="black"/>
</svg>
